<?xml version="1.0" encoding="utf-8"?>
<!-- Generator: Adobe Illustrator 25.2.1, SVG Export Plug-In . SVG Version: 6.00 Build 0)  -->
<svg version="1.1" id="Layer_1" xmlns="http://www.w3.org/2000/svg" xmlns:xlink="http://www.w3.org/1999/xlink" x="0px" y="0px"
	 viewBox="0 0 640.7 185" style="enable-background:new 0 0 640.7 185;" xml:space="preserve">
<style type="text/css">
	.st0{fill:#537EFF;}
	.st1{fill:#4DD3FE;}
	.st2{fill:#4400EE;}
	.st3{fill:#B1CFEF;}
	.st4{fill:#929497;}
</style>
<g id="Group_3445" transform="translate(-274.4 -826.302)">
	<g id="Group_3439">
		<path id="Path_1201" class="st0" d="M274.4,840.2h156.1l-78,78L274.4,840.2z"/>
		<path id="Path_1202" class="st1" d="M352.4,996.3V840.2l78.1,78.1L352.4,996.3z"/>
		<path id="Path_1203" class="st2" d="M391.5,879.2l-39,39v-78L391.5,879.2z"/>
		<path id="Path_1204" class="st3" d="M347.7,922.9l-73.3,73.3h73.3V922.9z"/>
		<path id="Path_1205" class="st1" d="M430.5,840.2"/>
	</g>
	<g id="Group_3444">
		<path class="st3" d="M466.3,1011.3c-0.6,0-1.1-0.5-1.1-1.1V827.9c0-0.6,0.5-1.1,1.1-1.1s1.1,0.5,1.1,1.1v182.2
			C467.4,1010.8,466.9,1011.3,466.3,1011.3z"/>
		<g id="Group_3441">
			<g id="Group_3440">
				<path id="Path_1206" class="st0" d="M526.1,880.6c-0.4,0.1-0.7-0.2-0.8-0.6c0-0.1,0-0.1,0-0.2v-44c0-0.2-0.1-0.4-0.4-0.5
					c0,0-0.1,0-0.1,0h-14c-0.4,0.1-0.7-0.2-0.8-0.6c0-0.1,0-0.1,0-0.2v-6.8c-0.1-0.4,0.2-0.7,0.6-0.8c0.1,0,0.1,0,0.2,0h38.3
					c0.4-0.1,0.7,0.2,0.8,0.6c0,0.1,0,0.1,0,0.2v6.8c0.1,0.4-0.2,0.7-0.6,0.8c-0.1,0-0.1,0-0.2,0h-14c-0.2,0-0.4,0.1-0.5,0.4
					c0,0,0,0.1,0,0.1v44c0.1,0.4-0.2,0.7-0.6,0.8c-0.1,0-0.1,0-0.2,0L526.1,880.6z"/>
				<path id="Path_1207" class="st4" d="M559.6,827.9c-0.1-0.4,0.2-0.7,0.6-0.8c0.1,0,0.1,0,0.2,0h29.4c0.4-0.1,0.7,0.2,0.8,0.6
					c0,0.1,0,0.1,0,0.2v0.7c0,0.4-0.2,0.7-0.6,0.8c-0.1,0-0.1,0-0.2,0h-27.3c-0.2,0-0.4,0.1-0.5,0.4c0,0,0,0.1,0,0.1v22.1
					c0,0.2,0.1,0.4,0.4,0.5c0,0,0.1,0,0.1,0h23.6c0.5,0,0.8,0.3,0.8,0.8v0.7c0,0.4-0.2,0.7-0.6,0.8c-0.1,0-0.1,0-0.2,0h-23.6
					c-0.2,0-0.4,0.1-0.5,0.4c0,0,0,0.1,0,0.1v22.9c0,0.2,0.1,0.4,0.4,0.5c0,0,0.1,0,0.1,0h27.3c0.4-0.1,0.7,0.2,0.8,0.6
					c0,0.1,0,0.1,0,0.2v0.7c0,0.4-0.2,0.7-0.6,0.8c-0.1,0-0.1,0-0.2,0h-29.4c-0.4,0-0.7-0.2-0.8-0.6c0-0.1,0-0.1,0-0.2L559.6,827.9z
					"/>
				<path id="Path_1208" class="st4" d="M601.8,870c-0.2-0.7-0.4-1.4-0.5-2.1c-0.2-0.8-0.3-1.9-0.4-3.1s-0.2-2.8-0.3-4.5
					c-0.1-1.8-0.1-3.9-0.1-6.3c0-2.4,0-4.5,0.1-6.3s0.2-3.3,0.3-4.6c0.1-1.3,0.3-2.3,0.4-3.1c0.1-0.7,0.3-1.4,0.5-2.1
					c0.9-3.5,3-6.5,5.9-8.6c3-2,6.6-2.9,10.2-2.8c3.2-0.1,6.3,0.7,9.1,2.2c2.8,1.6,4.9,4,6.2,6.9c0.3,0.5,0.2,0.8-0.2,1l-0.8,0.4
					c-0.4,0.3-0.8,0.2-1-0.3c-1.2-2.4-3-4.4-5.3-5.9c-2.4-1.5-5.2-2.2-8-2.1c-7,0-11.6,3.3-13.8,9.8c-0.2,0.5-0.3,1.2-0.5,2
					c-0.2,1-0.4,2-0.4,3c-0.1,1.2-0.2,2.7-0.3,4.4c-0.1,1.7-0.1,3.8-0.1,6.2c0,2.4,0,4.4,0.1,6.2s0.2,3.2,0.3,4.4c0.1,1,0.2,2,0.4,3
					c0.2,0.8,0.4,1.4,0.5,2c2.2,6.5,6.8,9.8,13.8,9.8c2.8,0.1,5.6-0.6,8-2.1c2.2-1.5,4-3.5,5.3-5.9c0.3-0.5,0.6-0.6,1-0.3l0.8,0.4
					c0.4,0.2,0.4,0.6,0.2,1c-1.3,2.9-3.5,5.3-6.2,6.9c-2.8,1.5-5.9,2.2-9.1,2.2c-3.6,0.1-7.2-0.8-10.2-2.8
					C604.8,876.5,602.7,873.4,601.8,870z"/>
				<path id="Path_1209" class="st4" d="M646.1,827.8c0-0.5,0.3-0.8,0.8-0.8h0.8c0.5,0,0.8,0.3,0.8,0.8v24c0,0.2,0.1,0.4,0.4,0.5
					c0,0,0.1,0,0.1,0h29.2c0.2,0,0.4-0.1,0.5-0.4c0,0,0-0.1,0-0.1v-24c0-0.5,0.3-0.8,0.8-0.8h0.8c0.4,0,0.7,0.2,0.8,0.6
					c0,0.1,0,0.1,0,0.2v52c0.1,0.4-0.2,0.7-0.6,0.8c-0.1,0-0.1,0-0.2,0h-0.8c-0.4,0-0.7-0.2-0.8-0.6c0-0.1,0-0.1,0-0.2V855
					c0-0.2-0.1-0.4-0.4-0.5c0,0-0.1,0-0.1,0H649c-0.2,0-0.4,0.1-0.5,0.4c0,0,0,0.1,0,0.1v24.8c0.1,0.4-0.2,0.7-0.6,0.8
					c-0.1,0-0.1,0-0.2,0h-0.8c-0.5,0-0.8-0.3-0.8-0.8L646.1,827.8z"/>
				<path id="Path_1210" class="st1" d="M514.9,944.7c-0.4,0.1-0.7-0.2-0.8-0.6c0-0.1,0-0.1,0-0.2v-52.1c-0.1-0.4,0.2-0.7,0.6-0.8
					c0.1,0,0.1,0,0.2,0H535c2.4,0,4.8,0.4,7.1,1.2c2.1,0.8,4,1.9,5.6,3.4c1.6,1.5,2.8,3.3,3.6,5.3c0.9,2.2,1.3,4.5,1.3,6.8
					c0,2.4-0.4,4.7-1.3,6.9c-0.8,2-2.1,3.8-3.6,5.3c-1.6,1.5-3.5,2.6-5.6,3.4c-2.3,0.8-4.7,1.2-7.1,1.2h-11.1
					c-0.2,0-0.4,0.1-0.5,0.4c0,0,0,0.1,0,0.1v19c0.1,0.4-0.2,0.7-0.6,0.8c-0.1,0-0.1,0-0.2,0L514.9,944.7z M534.5,916
					c2.4,0.1,4.7-0.7,6.5-2.2c3.2-3.4,3.2-8.6,0-12c-1.8-1.6-4.1-2.4-6.5-2.3h-10.6c-0.2,0-0.4,0.1-0.5,0.4c0,0,0,0.1,0,0.1v15.6
					c0,0.2,0.1,0.4,0.4,0.5c0,0,0.1,0,0.1,0L534.5,916z"/>
				<path id="Path_1211" class="st4" d="M595.8,944.7c-0.4,0-0.8-0.3-0.9-0.7l-11.8-24.4c-0.4,0.1-0.7,0.1-1.1,0.1h-15.8
					c-0.2,0-0.4,0.1-0.5,0.4c0,0,0,0.1,0,0.1v23.8c0.1,0.4-0.2,0.7-0.6,0.8c-0.1,0-0.1,0-0.2,0h-0.8c-0.4,0-0.7-0.2-0.8-0.6
					c0-0.1,0-0.1,0-0.2V892c-0.1-0.4,0.2-0.7,0.6-0.8c0.1,0,0.1,0,0.2,0h16.7c5.1,0,9,1.2,11.8,3.7c2.8,2.5,4.2,6,4.2,10.5
					c0.1,3.3-0.9,6.6-3,9.2c-2.2,2.5-5.2,4.1-8.5,4.6l12,24.7c0.1,0.2,0.1,0.4,0.1,0.6c-0.1,0.2-0.2,0.2-0.5,0.2L595.8,944.7z
					 M580.9,917.4c4.5,0,7.9-1,10.2-3c2.3-2,3.4-5,3.4-9c0-4-1.1-6.9-3.4-9s-5.7-3-10.2-3h-14.7c-0.2,0-0.4,0.1-0.5,0.4
					c0,0,0,0.1,0,0.1V917c0,0.2,0.1,0.4,0.4,0.5c0,0,0.1,0,0.1,0L580.9,917.4z"/>
				<path id="Path_1212" class="st4" d="M627.3,945.5c-8.5,0-14.1-3.9-16.6-11.6c-0.2-0.7-0.4-1.4-0.6-2.1c-0.2-0.8-0.4-1.8-0.5-3.1
					c-0.2-1.2-0.3-2.7-0.4-4.4c-0.1-1.7-0.1-3.8-0.1-6.3c0-2.4,0-4.5,0.1-6.3c0.1-1.8,0.2-3.3,0.4-4.5c0.2-1.2,0.3-2.3,0.5-3.1
					c0.2-0.7,0.4-1.4,0.6-2.1c2.5-7.8,8-11.6,16.6-11.6c8.5,0,14.1,3.9,16.6,11.6c0.2,0.7,0.4,1.4,0.6,2.1c0.2,0.8,0.4,1.8,0.5,3.1
					s0.3,2.7,0.4,4.5c0.1,1.8,0.1,3.8,0.1,6.3c0,2.5,0,4.6-0.1,6.3s-0.2,3.2-0.4,4.4c-0.2,1.2-0.3,2.3-0.5,3.1
					c-0.2,0.7-0.3,1.4-0.6,2.1C641.4,941.6,635.9,945.5,627.3,945.5z M627.3,943.3c7.3,0,12.1-3.3,14.3-10c0.2-0.5,0.3-1.2,0.5-1.9
					c0.2-1,0.4-1.9,0.5-2.9c0.2-1.2,0.3-2.6,0.4-4.3s0.1-3.7,0.1-6.1s0-4.4-0.1-6.1s-0.2-3.2-0.4-4.3c-0.1-1-0.3-2-0.5-2.9
					c-0.2-0.8-0.4-1.4-0.5-1.9c-2.2-6.7-7-10-14.3-10s-12.1,3.3-14.3,10c-0.2,0.5-0.3,1.2-0.5,1.9c-0.2,1-0.4,1.9-0.5,2.9
					c-0.2,1.2-0.3,2.6-0.4,4.3s-0.1,3.7-0.1,6.1s0,4.4,0.1,6.1c0.1,1.7,0.2,3.2,0.4,4.3c0.1,1,0.3,2,0.5,2.9
					c0.2,0.8,0.4,1.4,0.5,1.9C615.3,939.9,620,943.3,627.3,943.3z"/>
				<path id="Path_1213" class="st4" d="M658,934.1c-0.2-0.7-0.4-1.4-0.5-2.1c-0.2-0.8-0.3-1.9-0.4-3.1s-0.2-2.8-0.3-4.5
					c-0.1-1.8-0.1-3.9-0.1-6.3c0-2.4,0-4.5,0.1-6.3c0.1-1.8,0.2-3.3,0.3-4.6c0.1-1.3,0.3-2.3,0.4-3.1c0.1-0.7,0.3-1.4,0.5-2.1
					c0.9-3.5,3-6.5,5.9-8.6c3-2,6.6-2.9,10.2-2.8c3.2-0.1,6.3,0.7,9.1,2.2c2.8,1.6,4.9,4,6.2,6.9c0.3,0.5,0.2,0.8-0.2,1l-0.8,0.4
					c-0.4,0.3-0.8,0.2-1-0.3c-1.2-2.4-3-4.4-5.3-5.9c-2.4-1.5-5.2-2.2-8-2.1c-7,0-11.6,3.3-13.8,9.8c-0.2,0.5-0.3,1.2-0.5,2
					c-0.2,1-0.4,2-0.4,3c-0.1,1.2-0.2,2.7-0.3,4.4c-0.1,1.7-0.1,3.8-0.1,6.2c0,2.4,0,4.4,0.1,6.2s0.2,3.2,0.3,4.4c0.1,1,0.2,2,0.4,3
					c0.2,0.8,0.4,1.4,0.5,2c2.2,6.5,6.7,9.8,13.8,9.8c2.8,0.1,5.6-0.6,8-2.1c2.2-1.5,4-3.5,5.3-5.9c0.3-0.5,0.6-0.6,1-0.3l0.8,0.4
					c0.4,0.2,0.4,0.6,0.2,1c-1.3,2.9-3.5,5.3-6.2,6.9c-2.8,1.5-5.9,2.2-9.1,2.2c-3.6,0.1-7.2-0.8-10.2-2.8
					C661,940.6,658.9,937.5,658,934.1z"/>
				<path id="Path_1214" class="st4" d="M702.3,892c-0.1-0.4,0.2-0.7,0.6-0.8c0.1,0,0.1,0,0.2,0h29.4c0.4-0.1,0.7,0.2,0.8,0.6
					c0,0.1,0,0.1,0,0.2v0.7c0,0.4-0.2,0.7-0.6,0.8c-0.1,0-0.1,0-0.2,0h-27.3c-0.2,0-0.4,0.1-0.5,0.4c0,0,0,0.1,0,0.1v22.1
					c0,0.2,0.1,0.4,0.4,0.5c0,0,0.1,0,0.1,0h23.6c0.4-0.1,0.7,0.2,0.8,0.6c0,0.1,0,0.1,0,0.2v0.7c0,0.4-0.2,0.7-0.6,0.8
					c-0.1,0-0.1,0-0.2,0h-23.6c-0.2,0-0.4,0.1-0.5,0.4c0,0,0,0.1,0,0.1V942c0,0.2,0.1,0.4,0.4,0.5c0,0,0.1,0,0.1,0h27.3
					c0.4-0.1,0.7,0.2,0.8,0.6c0,0.1,0,0.1,0,0.2v0.7c0,0.4-0.2,0.7-0.6,0.8c-0.1,0-0.1,0-0.2,0h-29.4c-0.4,0-0.7-0.2-0.8-0.6
					c0-0.1,0-0.1,0-0.2L702.3,892z"/>
				<path id="Path_1215" class="st4" d="M760.5,945.5c-1.7,0-3.3-0.2-5-0.5c-1.6-0.3-3.2-0.7-4.7-1.3c-1.4-0.5-2.7-1.1-4-1.8
					c-1.1-0.6-2.2-1.3-3.1-2.1c-0.4-0.4-0.4-0.7-0.1-1.1l0.6-0.7c0.2-0.3,0.7-0.4,1-0.2c0,0,0.1,0.1,0.1,0.1
					c2.1,1.6,4.4,2.8,6.9,3.8c2.8,1.1,5.8,1.7,8.8,1.7c4.8,0,8.5-1.1,11.3-3.4c2.7-2.2,4.2-5.6,4.1-9.1c0-1.4-0.2-2.8-0.7-4.1
					c-0.5-1.3-1.2-2.5-2.2-3.5c-1.2-1.1-2.7-2-4.3-2.6c-2.2-0.8-4.5-1.3-6.8-1.6l-2.4-0.3c-5.4-0.7-9.2-2.3-11.6-4.6
					c-2.4-2.4-3.7-5.6-3.5-9c0-4.6,1.5-8.2,4.4-10.8c2.9-2.5,6.8-3.8,11.8-3.8c2.7,0,5.4,0.4,8,1.1c2.3,0.6,4.4,1.6,6.4,2.9
					c0.5,0.3,0.5,0.6,0.2,1.1l-0.6,0.7c-0.2,0.3-0.7,0.4-1.1,0.2c0,0,0,0,0,0c-3.9-2.4-8.5-3.7-13.1-3.8c-4.4,0-7.7,1.1-10.1,3.3
					c-2.4,2.3-3.7,5.5-3.5,8.7c-0.1,2.9,1,5.7,3.2,7.7c2.1,2,5.7,3.3,10.9,4l2.4,0.3c5.4,0.7,9.2,2.3,11.5,4.6
					c2.4,2.4,3.7,5.7,3.5,9.1c0.1,4.1-1.5,8.1-4.6,10.9C771.1,944.1,766.5,945.5,760.5,945.5z"/>
				<path id="Path_1216" class="st4" d="M807.8,945.5c-1.7,0-3.3-0.2-5-0.5c-1.6-0.3-3.2-0.7-4.7-1.3c-1.4-0.5-2.7-1.1-4-1.8
					c-1.1-0.6-2.2-1.3-3.1-2.1c-0.3-0.2-0.4-0.6-0.2-0.9c0-0.1,0.1-0.1,0.2-0.2l0.6-0.7c0.2-0.3,0.7-0.4,1-0.2c0,0,0.1,0.1,0.1,0.1
					c2.1,1.6,4.4,2.8,6.9,3.8c2.8,1.1,5.8,1.7,8.8,1.7c4.8,0,8.5-1.1,11.3-3.4c2.7-2.2,4.2-5.6,4.1-9.1c0-1.4-0.2-2.8-0.7-4.1
					c-0.5-1.3-1.2-2.5-2.2-3.5c-1.2-1.1-2.7-2-4.3-2.6c-2.2-0.8-4.5-1.3-6.8-1.6l-2.4-0.3c-5.4-0.7-9.2-2.3-11.6-4.6
					c-2.4-2.4-3.7-5.6-3.5-9c0-4.6,1.5-8.2,4.4-10.8c2.9-2.5,6.8-3.8,11.8-3.8c2.7,0,5.4,0.4,8,1.1c2.3,0.6,4.4,1.6,6.4,2.9
					c0.5,0.3,0.5,0.6,0.2,1.1l-0.6,0.7c-0.2,0.3-0.7,0.4-1.1,0.2c0,0,0,0,0,0c-3.9-2.4-8.5-3.7-13.1-3.8c-4.4,0-7.7,1.1-10.1,3.3
					c-2.4,2.3-3.7,5.5-3.5,8.7c-0.1,2.9,1,5.7,3.2,7.7c2.1,2,5.7,3.3,10.9,4l2.4,0.3c5.4,0.7,9.2,2.3,11.5,4.6
					c2.4,2.4,3.7,5.7,3.5,9.1c0.1,4.1-1.5,8.1-4.6,10.9C818.4,944.1,813.8,945.5,807.8,945.5z"/>
				<path id="Path_1217" class="st3" d="M531,1009.7c-2,0-3.9-0.2-5.8-0.6c-1.8-0.4-3.6-0.9-5.4-1.5c-1.6-0.6-3.2-1.4-4.7-2.3
					c-1.3-0.8-2.6-1.7-3.7-2.8c-0.4-0.4-0.5-0.8-0.2-1.2l4.9-5.7c0.2-0.3,0.6-0.4,0.9-0.2c0.1,0,0.1,0.1,0.2,0.2
					c0.9,0.7,1.9,1.4,2.9,2c1.1,0.7,2.3,1.3,3.5,1.8c1.3,0.5,2.6,1,3.9,1.3c1.4,0.3,2.9,0.5,4.3,0.5c3.2,0,5.7-0.7,7.4-2.2
					c1.7-1.3,2.7-3.4,2.6-5.6c0.1-1.8-0.7-3.6-2.1-4.8c-1.4-1.2-4-2.1-7.6-2.6l-2.8-0.4c-5.2-0.7-9.2-2.3-12-4.8
					c-2.8-2.5-4.2-6-4.2-10.4c0-2.3,0.4-4.5,1.3-6.6c0.8-2,2-3.7,3.6-5.1c1.7-1.5,3.6-2.6,5.7-3.3c2.4-0.8,5-1.2,7.5-1.1
					c3.2,0,6.5,0.5,9.6,1.5c2.8,0.9,5.4,2.2,7.8,3.9c0.3,0.3,0.4,0.7,0.2,1.1c0,0,0,0,0,0l-3.8,5.8c-0.2,0.4-0.6,0.5-1,0.3
					c0,0-0.1,0-0.1-0.1c-2-1.3-4.1-2.4-6.4-3.2c-2.1-0.7-4.3-1-6.5-1c-2.3-0.2-4.5,0.6-6.3,2c-1.4,1.3-2.2,3.2-2.2,5.2
					c0,1.8,0.8,3.5,2.2,4.6c1.5,1.2,4,2.1,7.7,2.6l2.8,0.4c5.2,0.7,9.2,2.3,11.9,4.8s4.1,6.1,4.1,10.7c0,2.3-0.4,4.5-1.3,6.6
					c-0.8,2-2.2,3.9-3.9,5.3c-1.9,1.6-4,2.7-6.4,3.5C536.9,1009.3,534,1009.7,531,1009.7z"/>
				<path id="Path_1218" class="st4" d="M578.2,1009.6c-8.5,0-14.1-3.9-16.6-11.6c-0.2-0.7-0.4-1.4-0.6-2.1
					c-0.2-0.8-0.4-1.8-0.5-3.1c-0.2-1.2-0.3-2.7-0.4-4.4c-0.1-1.7-0.1-3.8-0.1-6.3c0-2.4,0-4.5,0.1-6.3c0.1-1.8,0.2-3.3,0.4-4.5
					c0.2-1.2,0.3-2.3,0.5-3.1c0.2-0.7,0.3-1.4,0.6-2.1c2.5-7.8,8-11.6,16.6-11.6s14.1,3.9,16.6,11.6c0.2,0.7,0.4,1.4,0.6,2.1
					c0.2,0.8,0.4,1.8,0.5,3.1s0.3,2.7,0.4,4.5c0.1,1.8,0.1,3.8,0.1,6.3c0,2.5,0,4.6-0.1,6.3s-0.2,3.2-0.4,4.4
					c-0.2,1.2-0.3,2.3-0.5,3.1c-0.2,0.7-0.4,1.4-0.6,2.1C592.2,1005.7,586.7,1009.6,578.2,1009.6z M578.2,1007.4
					c7.3,0,12.1-3.3,14.3-10c0.2-0.5,0.3-1.2,0.5-1.9c0.2-1,0.4-1.9,0.5-2.9c0.2-1.2,0.3-2.6,0.4-4.3s0.1-3.7,0.1-6.1
					c0-2.4,0-4.4-0.1-6.1c-0.1-1.7-0.2-3.2-0.4-4.3c-0.1-1-0.3-2-0.5-2.9c-0.2-0.8-0.4-1.4-0.5-1.9c-2.2-6.7-7-10-14.3-10
					c-7.3,0-12.1,3.3-14.3,10c-0.2,0.5-0.3,1.2-0.5,1.9c-0.2,1-0.4,1.9-0.5,2.9c-0.2,1.2-0.3,2.6-0.4,4.3s-0.1,3.7-0.1,6.1
					c0,2.4,0,4.4,0.1,6.1s0.2,3.2,0.4,4.3c0.1,1,0.3,2,0.5,2.9c0.2,0.8,0.4,1.4,0.5,1.9C566.1,1004.1,570.9,1007.4,578.2,1007.4
					L578.2,1007.4z"/>
				<path id="Path_1219" class="st4" d="M610,956c0-0.5,0.3-0.8,0.8-0.8h0.8c0.4,0,0.7,0.2,0.8,0.6c0,0.1,0,0.1,0,0.2v50.1
					c0,0.2,0.1,0.4,0.4,0.5c0,0,0.1,0,0.1,0h27.3c0.4-0.1,0.7,0.2,0.8,0.6c0,0.1,0,0.1,0,0.2v0.7c0,0.5-0.3,0.8-0.8,0.8h-29.4
					c-0.5,0-0.8-0.3-0.8-0.8V956z"/>
				<path id="Path_1220" class="st4" d="M665.7,1009.6c-5.7,0-10-1.5-13-4.6c-3-3.1-4.5-7.9-4.5-14.5V956c-0.1-0.4,0.2-0.7,0.6-0.8
					c0.1,0,0.1,0,0.2,0h0.8c0.4,0,0.7,0.2,0.8,0.6c0,0.1,0,0.1,0,0.2v34.6c0,5.7,1.3,9.9,3.9,12.7s6.3,4.1,11.2,4.1
					c5,0,8.7-1.4,11.3-4.1c2.6-2.8,3.8-7,3.8-12.7V956c-0.1-0.4,0.2-0.7,0.6-0.8c0.1,0,0.1,0,0.2,0h0.8c0.4,0,0.7,0.2,0.8,0.6
					c0,0.1,0,0.1,0,0.2v34.4c0,6.5-1.5,11.3-4.5,14.4C675.7,1008,671.4,1009.6,665.7,1009.6z"/>
				<path id="Path_1221" class="st4" d="M710.4,1008.8c-0.4,0-0.7-0.2-0.8-0.6c0-0.1,0-0.1,0-0.2v-50c0-0.2-0.1-0.4-0.4-0.5
					c0,0-0.1,0-0.1,0h-16c-0.5,0-0.8-0.3-0.8-0.8v-0.7c0-0.5,0.3-0.8,0.8-0.8h35.3c0.4-0.1,0.7,0.2,0.8,0.6c0,0.1,0,0.1,0,0.2v0.7
					c0,0.4-0.2,0.7-0.6,0.8c-0.1,0-0.1,0-0.2,0h-16c-0.2,0-0.4,0.1-0.5,0.4c0,0,0,0.1,0,0.1v50c0.1,0.4-0.2,0.7-0.6,0.8
					c-0.1,0-0.1,0-0.2,0L710.4,1008.8z"/>
				<path id="Path_1222" class="st4" d="M739.1,956c-0.1-0.4,0.2-0.7,0.6-0.8c0.1,0,0.1,0,0.2,0h0.8c0.4,0,0.7,0.2,0.8,0.6
					c0,0.1,0,0.1,0,0.2v52c0.1,0.4-0.2,0.7-0.6,0.8c-0.1,0-0.1,0-0.2,0h-0.8c-0.4,0-0.7-0.2-0.8-0.6c0-0.1,0-0.1,0-0.2V956z"/>
				<path id="Path_1223" class="st4" d="M773.3,1009.6c-8.5,0-14.1-3.9-16.6-11.6c-0.2-0.7-0.4-1.4-0.6-2.1
					c-0.2-0.8-0.4-1.8-0.5-3.1c-0.2-1.2-0.3-2.7-0.4-4.4s-0.1-3.8-0.1-6.3c0-2.4,0-4.5,0.1-6.3c0.1-1.8,0.2-3.3,0.4-4.5
					c0.2-1.2,0.3-2.3,0.5-3.1c0.2-0.7,0.3-1.4,0.6-2.1c2.5-7.8,8-11.6,16.6-11.6s14.1,3.9,16.6,11.6c0.2,0.7,0.4,1.4,0.6,2.1
					c0.2,0.8,0.4,1.8,0.5,3.1c0.2,1.2,0.3,2.7,0.4,4.5c0.1,1.8,0.1,3.8,0.1,6.3c0,2.5,0,4.6-0.1,6.3s-0.2,3.2-0.4,4.4
					c-0.2,1.2-0.3,2.3-0.5,3.1c-0.2,0.7-0.3,1.4-0.6,2.1C787.3,1005.7,781.8,1009.6,773.3,1009.6z M773.3,1007.4
					c7.3,0,12.1-3.3,14.3-10c0.2-0.5,0.3-1.2,0.5-1.9c0.2-1,0.4-1.9,0.5-2.9c0.2-1.2,0.3-2.6,0.4-4.3s0.1-3.7,0.1-6.1
					c0-2.4,0-4.4-0.1-6.1c-0.1-1.7-0.2-3.2-0.4-4.3c-0.1-1-0.3-2-0.5-2.9c-0.2-0.8-0.4-1.4-0.5-1.9c-2.2-6.7-7-10-14.3-10
					c-7.3,0-12.1,3.3-14.3,10c-0.2,0.5-0.3,1.2-0.5,1.9s-0.4,1.7-0.5,2.9c-0.2,1.2-0.3,2.6-0.4,4.3c-0.1,1.7-0.1,3.7-0.1,6.1
					c0,2.4,0,4.4,0.1,6.1s0.2,3.2,0.4,4.3c0.2,1.2,0.3,2.2,0.5,2.9c0.2,0.8,0.4,1.4,0.5,1.9C761.2,1004.1,765.9,1007.4,773.3,1007.4
					L773.3,1007.4z"/>
				<path id="Path_1224" class="st4" d="M805.1,956c-0.1-0.4,0.2-0.7,0.6-0.8c0.1,0,0.1,0,0.2,0h0.7c0.2,0,0.5,0,0.7,0.1
					c0.3,0.2,0.5,0.4,0.6,0.7l29.5,47.5h0.2V956c-0.1-0.4,0.2-0.7,0.6-0.8c0.1,0,0.1,0,0.2,0h0.8c0.4,0,0.7,0.2,0.8,0.6
					c0,0.1,0,0.1,0,0.2v52c0.1,0.4-0.2,0.7-0.6,0.8c-0.1,0-0.1,0-0.2,0h-0.7c-0.2,0-0.5,0-0.7-0.1c-0.3-0.1-0.5-0.4-0.6-0.7
					l-29.5-47.5h-0.2v47.5c0.1,0.4-0.2,0.7-0.6,0.8c-0.1,0-0.1,0-0.2,0h-0.8c-0.4,0-0.7-0.2-0.8-0.6c0-0.1,0-0.1,0-0.2V956z"/>
				<path id="Path_1225" class="st4" d="M871,1009.6c-1.7,0-3.3-0.2-5-0.5c-1.6-0.3-3.2-0.7-4.7-1.3c-1.4-0.5-2.7-1.1-4-1.8
					c-1.1-0.6-2.2-1.3-3.1-2.1c-0.4-0.4-0.4-0.7-0.1-1.1l0.6-0.7c0.2-0.3,0.7-0.4,1-0.2c0,0,0.1,0.1,0.1,0.1
					c2.1,1.6,4.4,2.8,6.9,3.8c2.8,1.1,5.8,1.7,8.8,1.7c4.8,0,8.5-1.1,11.3-3.4c2.7-2.2,4.2-5.6,4.1-9.1c0-1.4-0.2-2.8-0.7-4.1
					c-0.5-1.3-1.2-2.5-2.2-3.5c-1.2-1.1-2.7-2-4.3-2.6c-2.2-0.8-4.5-1.3-6.8-1.6l-2.4-0.3c-5.4-0.7-9.2-2.3-11.6-4.6
					c-2.4-2.4-3.7-5.6-3.5-9c0-4.6,1.5-8.2,4.4-10.8c2.9-2.5,6.8-3.8,11.8-3.8c2.7,0,5.4,0.4,8,1.1c2.3,0.6,4.4,1.6,6.4,2.9
					c0.5,0.3,0.5,0.6,0.2,1.1l-0.6,0.7c-0.2,0.3-0.7,0.4-1.1,0.2c0,0,0,0,0,0c-3.9-2.4-8.5-3.7-13.1-3.8c-4.4,0-7.7,1.1-10.1,3.3
					c-2.4,2.3-3.7,5.5-3.5,8.7c-0.1,2.9,1,5.7,3.2,7.7c2.1,2,5.7,3.3,10.9,4l2.4,0.3c5.4,0.7,9.2,2.3,11.5,4.6
					c2.4,2.4,3.7,5.7,3.5,9.1c0.1,4.1-1.5,8.1-4.6,10.9C881.5,1008.2,877,1009.6,871,1009.6z"/>
			</g>
		</g>
	</g>
</g>
</svg>
